<?xml version="1.0" encoding="utf-8"?>
<!-- Svg Vector Icons : http://www.onlinewebfonts.com/icon -->
<!DOCTYPE svg PUBLIC "-//W3C//DTD SVG 1.1//EN" "http://www.w3.org/Graphics/SVG/1.1/DTD/svg11.dtd">
<svg version="1.1" xmlns="http://www.w3.org/2000/svg" xmlns:xlink="http://www.w3.org/1999/xlink" x="0px" y="0px" viewBox="0 0 1000 1000" enable-background="new 0 0 1000 1000" xml:space="preserve">
<metadata> Svg Vector Icons : http://www.onlinewebfonts.com/icon </metadata>
<g><g transform="translate(0.000000,512.000000) scale(0.100000,-0.100000)"><path d="M4660.1,5011c-36.4-3.8-149.4-17.2-249.1-26.8c-846.8-93.9-1697.5-446.4-2433.2-1011.6c-237.6-182-695.5-649.5-885.1-904.3C-30,1566.3-213.9-387.9,609.9-2045.1c254.8-515.4,519.2-879.4,934.9-1297.1c793.2-791.3,1714.7-1247.2,2856.6-1410.1c226.1-32.6,980.9-32.6,1207,0c797,115,1463.7,364,2101.7,789.3c965.6,639.9,1674.5,1597.9,1996.3,2697.6C9852.1-773,9900-435.8,9900,117.9c0,249.1-11.5,503.9-24.9,603.5c-132.2,923.5-457.9,1697.5-1015.4,2423.6c-183.9,237.6-651.4,695.5-904.3,885.1c-682.1,509.6-1410.1,814.2-2260.7,944.5C5503.1,5003.4,4807.6,5028.3,4660.1,5011z M5437.9,4694.9c798.9-78.6,1653.4-398.5,2243.5-843l99.6-74.7l-132.2-193.5c-72.8-107.3-136-203.1-137.9-212.7c-3.8-11.5-76.6,51.7-162.9,139.9c-139.9,143.7-162.9,159-226.1,159c-90,0-143.7-59.4-143.7-157.1c0-59.4,21.1-88.1,182-251l182-185.8l-105.4-233.7c-57.5-126.4-105.4-241.4-105.4-251c0-38.3-38.3-21.1-224.2,95.8c-231.8,145.6-272.1,155.2-350.6,78.6c-113-115-76.6-176.3,216.5-356.4l237.6-145.6l-67.1-233.7c-36.4-130.3-69-237.6-72.8-241.4c-1.9-3.8-99.6,51.7-216.5,120.7c-228,139.9-268.2,147.5-346.8,63.2c-49.8-55.6-47.9-136,5.7-193.5c23-26.8,143.7-109.2,268.2-185.8c197.3-120.7,226.1-143.7,216.5-180.1c-5.7-21.1-21.1-113-32.6-203.1c-13.4-90.1-28.7-170.5-36.4-178.2c-7.7-7.7-93.9,19.2-191.6,63.2c-197.3,84.3-206.9,86.2-275.9,55.6c-72.8-34.5-101.5-120.7-65.1-195.4c24.9-51.7,63.2-76.6,247.1-155.2c120.7-51.7,228-99.6,237.6-109.2c30.6-23,13.4-477.1-17.2-477.1c-13.4,0-111.1,26.8-218.4,59.4c-172.4,51.7-199.3,55.6-247.2,32.6c-28.7-13.4-65.1-49.8-80.5-80.5c-23-47.9-21.1-63.2,3.8-118.8c28.7-57.5,47.9-69,247.1-130.3c118.8-36.4,239.5-72.8,266.3-78.6c49.8-11.5,49.8-15.3,63.2-243.3c7.7-126.4,9.6-233.7,7.7-237.6c-3.8-1.9-101.5,15.3-216.5,42.1c-116.9,24.9-229.9,46-254.8,46c-61.3,0-137.9-82.4-137.9-149.4c0-111.1,44.1-136,354.5-203.1c174.3-38.3,291.2-72.8,298.9-90c15.3-30.7,80.5-402.3,70.9-410c-3.8-1.9-103.4,7.7-222.2,23c-195.4,24.9-220.3,24.9-262.5-1.9c-84.3-55.6-86.2-195.4-3.8-249.1c23-17.2,162.9-44.1,308.5-63.2s268.2-42.1,270.1-53.6c3.8-9.6,32.6-107.3,65.2-212.7c32.5-107.3,59.4-205,59.4-218.4c0-17.2-47.9-21.1-185.8-15.3c-274,13.4-350.6-19.2-350.6-143.7c0-137.9,72.8-166.7,421.5-166.7h241.4l109.2-233.7c67.1-143.7,101.5-237.6,90.1-245.2c-11.5-7.7-90.1-23-178.2-38.3c-170.5-26.8-251-57.5-270.1-105.4c-40.2-107.3,26.8-220.3,130.3-220.3c32.6,0,160.9,19.2,283.5,42.2c124.5,23,228,38.3,231.8,32.6c3.8-3.8,55.6-78.6,115-166.7l107.3-157.1l-99.6-74.7c-701.2-526.9-1745.4-864.1-2676.5-864.1c-931.1,0-1975.3,337.2-2676.5,864.1l-99.6,74.7l118.8,172.4c63.2,93.9,126.5,172.4,136,172.4c11.5,0,111.1-17.3,222.2-38.3c275.9-51.7,331.4-49.8,381.3,11.5c23,28.7,40.2,74.7,40.2,103.5c0,90-69,130.3-289.3,172.4c-109.2,21.1-201.2,38.3-205,38.3c-1.9,0,24.9,57.5,59.4,128.4c36.4,72.8,84.3,178.2,109.2,239.5l44.1,107.3l291.2,7.7c308.5,5.7,341,15.3,375.5,105.4c19.2,53.6-13.4,153.3-59.4,178.2c-19.2,11.5-136,19.2-256.7,19.2c-122.6,0-222.2,3.8-222.2,9.6c0,13.4,134.1,457.9,139.9,459.8c1.9,1.9,124.5,17.2,272.1,36.4c216.5,26.8,275.9,42.1,312.3,74.7c59.4,53.7,57.5,153.3-5.7,214.6c-53.6,55.6-53.6,55.6-306.5,19.2c-103.5-15.3-193.5-24.9-195.4-21.1c-15.3,15.3,69,419.6,90.1,433c11.5,7.7,139.9,38.3,283.5,67.1c291.2,61.3,348.7,93.9,348.7,201.2c0,69-72.8,153.3-134.1,153.3c-23,0-136-21.1-252.9-47.9c-116.9-26.8-216.5-44.1-220.3-40.2c-3.8,3.8,0,109.2,7.7,233.7l15.3,228L3568-29.6c132.2,40.2,258.6,84.3,281.6,99.6c57.5,38.3,74.7,132.2,34.5,193.5c-57.5,86.2-105.4,90-335.3,23c-115-32.6-212.7-57.5-218.4-51.7c-3.8,3.8-11.5,111.1-13.4,237.6l-7.7,229.9L3547,807.6c130.3,59.4,249.1,122.6,262.5,143.7c38.3,51.7,32.6,130.3-11.5,178.2c-67.1,72.8-115,70.9-312.3-13.4c-101.5-44.1-191.6-78.6-199.3-78.6c-9.6,0-28.7,74.7-40.2,164.8c-13.4,90-28.7,187.7-34.5,216.5c-11.5,49.8,0,61.3,216.5,191.6c272.1,168.6,312.3,203.1,312.3,272.1c0,78.5-17.2,111.1-80.5,143.7c-70.9,36.4-99.6,26.8-327.6-113c-103.5-61.3-191.6-109.2-195.4-105.4c-5.7,5.7-34.5,99.6-65.1,208.8c-30.7,109.2-61.3,212.7-69,229.9c-7.7,23,44.1,63.2,220.3,170.5c239.5,143.7,287.4,189.7,287.4,260.6c0,55.6-65.1,134.1-124.5,149.4c-55.6,13.4-90-1.9-325.7-149.4l-168.6-107.3l-103.5,235.6c-57.5,128.4-109.2,243.3-113,256.7c-5.7,11.5,70.9,107.3,170.5,210.7c99.6,105.4,187.8,208.8,193.5,231.8c19.2,57.5-24.9,141.8-90,172.4c-80.5,38.3-147.5,3.8-295.1-162.8c-69-76.6-134.1-137.9-141.8-136c-9.6,3.8-76.6,93.9-149.4,201.2l-132.2,197.3l69,53.6c565.2,438.7,1465.6,785.5,2245.4,864.1C4782.7,4717.9,5198.4,4719.8,5437.9,4694.9z M2133,3390.2c61.3-95.8,113-180.1,113-187.7c0-7.7-105.4-51.7-233.7-95.8c-304.6-105.4-377.4-180.1-291.2-302.7c61.3-86.2,99.6-86.2,402.3,15.3c155.2,53.6,285.5,92,287.4,90.1c15.3-15.3,180.1-402.3,174.3-408.1c-1.9-3.8-109.2-15.3-233.7-26.8c-126.5-13.4-243.3-30.7-260.6-40.2c-42.1-21.1-70.9-109.2-57.5-168.6c7.7-24.9,34.5-61.3,59.4-82.4c44.1-32.6,67.1-32.6,321.9-11.5c229.9,17.2,277.8,17.2,291.2-5.8c19.2-30.7,136-442.6,128.4-450.2c-3.8-3.8-109.2-15.3-235.7-26.8c-132.2-13.4-245.2-32.6-270.1-49.8c-82.4-53.6-80.5-193.5,3.8-249.1c40.2-26.8,74.7-26.8,298.9-7.7c137.9,11.5,258.6,15.3,266.3,5.7c7.7-7.7,24.9-84.3,36.4-168.6c13.4-84.3,26.8-178.2,34.5-208.8l9.6-53.6l-283.6,11.5c-310.4,13.4-333.4,7.7-369.8-90c-24.9-65.1,0-136,59.4-174.3c30.6-19.2,134.1-32.6,331.4-44.1l287.4-15.3l5.7-226.1l5.8-226.1l-44.1,11.5c-24.9,5.7-137.9,26.8-252.9,47.9c-235.7,42.2-287.4,32.6-333.4-63.2c-30.7-63.2-3.8-155.2,53.6-185.9c24.9-13.4,528.8-115,570.9-115c9.6,0-9.6-423.4-21.1-433c-3.8-3.8-99.6,19.2-216.5,49.8c-115,30.7-228,57.5-252.9,57.5c-61.3,0-137.9-82.4-137.9-149.4c0-103.5,47.9-134.1,314.2-205c136-36.4,249.1-69,252.9-72.8c9.6-9.6-63.2-417.7-76.6-431.1c-5.8-3.8-113,26.8-235.7,70.9c-252.9,88.1-308.5,93.9-371.7,42.1c-53.6-44.1-59.4-155.2-9.6-208.8c17.2-21.1,149.4-78.5,291.2-128.4c139.9-49.8,256.7-95.8,256.7-103.4c0-17.3-116.9-390.8-128.4-408.1c-3.8-7.6-111.1,36.4-235.6,99.6c-126.5,63.2-251,115-277.8,115c-69,0-143.7-80.5-143.7-153.3c0-82.4,44.1-116.9,306.5-249.1c210.7-105.4,229.9-120.7,218.4-159c-13.4-46-176.3-398.5-189.7-411.9c-3.8-3.8-103.5,67.1-222.2,157.1c-212.7,162.9-264.4,185.8-352.5,153.3c-44.1-17.3-82.4-113-70.9-174.4c5.8-32.6,80.5-101.5,245.2-229.9l237.6-183.9l-32.6-53.6c-19.2-28.7-63.2-92-97.7-141.8l-61.3-88.1l-124.5,109.2c-241.4,212.7-569,611.2-770.2,935c-716.5,1155.3-889,2565.4-465.6,3843.3c183.9,557.5,436.8,1023.1,798.9,1475.2c168.6,208.8,538.4,578.6,565.2,563.3C2010.4,3568.4,2069.8,3484.1,2133,3390.2z M8422.9,3185.2c431.1-488.5,743.4-1025,940.7-1613.2c496.2-1492.5,201.2-3111.4-789.4-4347.1c-160.9-199.3-538.3-578.6-563.2-563.3c-19.2,11.5-170.5,229.9-170.5,245.3c0,5.7,97.7,84.3,216.5,176.2c116.9,90,226.1,178.2,239.5,195.4c36.4,46,28.7,145.6-15.3,191.6c-72.8,76.6-149.4,57.5-339.1-86.2c-92-69-185.8-141.8-208.8-162.9c-21.1-19.2-46-34.5-53.7-34.5c-11.5,0-222.2,425.3-222.2,450.2c0,5.7,111.1,65.1,249.1,134.1c136,67.1,256.7,139.9,268.2,160.9c51.7,97.7-21.1,231.8-124.5,231.8c-26.8,0-151.3-51.7-277.8-115l-228-114.9l-55.5,178.2c-32.6,95.8-63.2,195.4-69,216.5c-11.5,38.3,7.7,47.9,247.1,132.2c272.1,95.8,335.3,139.9,335.3,233.8c0,63.2-80.5,139.9-149.4,139.9c-30.7,0-151.4-34.5-270.1-76.6c-116.9-42.2-222.2-76.6-229.9-76.6c-9.6,0-30.6,80.5-47.9,178.2c-19.2,95.8-36.4,195.4-42.1,218.4c-7.7,36.4,3.8,46,72.8,63.2c469.4,122.6,494.3,136,494.3,258.7c0,72.8-70.9,143.7-141.8,143.7c-21.1,0-134.1-26.8-249-57.5C7122-545,7026.2-568,7022.3-566.1c-9.6,9.6-30.6,434.9-21.1,434.9c63.2,0,553.7,105.4,584.3,124.5c57.5,38.3,74.7,132.2,36.4,191.6c-57.5,86.2-88.1,92-333.3,47.9c-122.6-23-239.5-44.1-258.7-49.8c-30.7-9.6-32.6,5.8-28.7,216.5l5.7,226.1l302.7,19.2c298.9,19.2,304.6,19.2,350.6,72.8c24.9,28.7,46,67.1,46,82.4c0,51.7-55.6,137.9-97.7,151.3c-21.1,7.7-160.9,7.7-308.5,0L7030,936l11.5,65.1c5.7,36.4,21.1,137.9,34.5,226.1l23,160.9l164.8-13.4c90-7.7,214.6-17.2,273.9-23c97.7-11.5,113-7.7,157.1,36.4c65.1,65.2,67.1,162.9,7.7,220.3c-36.4,32.6-86.2,44.1-283.5,61.3c-132.2,11.5-241.4,24.9-245.2,28.7c-17.2,17.2,118.8,454.1,143.7,463.6c15.3,5.7,145.6,1.9,289.3-9.6c283.6-23,321.9-15.3,367.9,74.7c28.8,53.6,5.8,147.5-46,180.1c-23,15.3-137.9,36.4-270.1,47.9c-126.4,13.4-233.7,24.9-237.6,30.7c-11.5,9.6,151.4,388.9,172.4,402.3c9.6,5.7,141.8-34.5,295-86.2c155.2-53.6,293.1-92,310.4-84.3c69,23,120.7,88.1,120.7,149.4c0,92-59.4,132.2-325.7,222.2c-132.2,44.1-243.3,82.4-245.2,86.2c-7.7,5.7,149.4,252.9,220.3,348.7l46,61.3l122.6-107.3C8204.5,3418.9,8332.8,3286.7,8422.9,3185.2z"/></g></g>
</svg>